<?xml version="1.0" encoding="UTF-8"?>
<svg id="Layer_1" data-name="Layer 1" xmlns="http://www.w3.org/2000/svg" viewBox="0 0 1242 1224">
  <defs>
    <style>
      .cls-1 {
        fill: none;
      }
      .cls-2 {
        fill: #e74c3c; /* Brand crimson color */
      }
    </style>
  </defs>
  <path class="cls-1" d="M380.31,345.05c-51.89,56.38-84.24,131.02-86.27,213.2-4.62,187.55,150.65,341.39,338.16,335.08,175.44-5.91,315.85-149.99,315.85-326.87,0-84.53-32.07-161.57-84.71-219.62-.01-.01-.04-.02-.05,0l-240.45,217.78s-.03.01-.05,0l-242.43-219.58s-.04-.01-.05,0Z"/>
  <path class="cls-2" d="M883.2,370.95c60.09,80.45,84.02,189.47,47.72,303.01-26.64,83.3-116.92,174.47-200.04,201.65-227.13,74.27-436.93-92.94-436.93-309.15,0-74.61,24.99-143.38,67.05-198.4,10.38-13.57,8.47-32.88-4.19-44.35l-83.4-75.54c-15.62-14.15-39.92-12-52.93,4.58-98.72,125.86-139.42,299.39-81.75,480.35,42.9,134.61,190.05,278.1,325.39,318.65,347.87,104.22,665.63-153.43,665.63-485.3,0-116.51-39.17-223.87-105.05-309.63-13.7-17.84-39.7-20.22-56.38-5.12l-80.69,73.08c-13.18,11.93-15.07,31.91-4.43,46.16Z"/>
  <path class="cls-2" d="M971.6,425.48H309.89c-28.62,0-51.82-23.2-51.82-51.82h0c0-28.62,23.2-51.82,51.82-51.82h661.71c28.62,0,51.82,23.2,51.82,51.82h0c0,28.62-23.2,51.82-51.82,51.82Z"/>
  <path class="cls-2" d="M575.5,728.13V201.84c0-29.3,23.75-53.06,53.06-53.06h0c29.3,0,53.06,23.75,53.06,53.06v526.29c0,29.3-23.75,53.06-53.06,53.06h0c-29.3,0-53.06-23.75-53.06-53.06Z"/>
  <path class="cls-2" d="M750.46,728.13V201.84c0-29.3,23.75-53.06,53.06-53.06h0c29.3,0,53.06,23.75,53.06,53.06v526.29c0,29.3-23.75,53.06-53.06,53.06h0c-29.3,0-53.06-23.75-53.06-53.06Z"/>
  <path class="cls-2" d="M400.55,728.13V201.84c0-29.3,23.75-53.06,53.06-53.06h0c29.3,0,53.06,23.75,53.06,53.06v526.29c0,29.3-23.75,53.06-53.06,53.06h0c-29.3,0-53.06-23.75-53.06-53.06Z"/>
</svg>
